<svg height="1902" width="720" xmlns="http://www.w3.org/2000/svg">
<rect height="1902" fill="#555" width="720"></rect>
<text fill="#7f7" font-family="Courier New" font-size="12" xml:space="preserve">
<tspan x="10" y="26"></tspan>
<tspan x="10" y="42">&gt; npmdoc-less@0.0.2 test /home/travis/build/npmdoc/node-npmdoc-less</tspan>
<tspan x="10" y="58">&gt; (set -e; export PORT=$(utility2 shServerPortRandom); utility2 test test.js)</tspan>
<tspan x="10" y="74"></tspan>
<tspan x="10" y="90"></tspan>
<tspan x="10" y="106">[MODE_BUILD=npmTest] - 2017-03-25T18:29:26Z - npm-testing /home/travis/build/npmdoc/node-npmdoc-\</tspan>
<tspan x="10" y="122">less</tspan>
<tspan x="10" y="138"></tspan>
<tspan x="10" y="154"></tspan>
<tspan x="10" y="170">covering $ /home/travis/.nvm/versions/node/v6.10.1/bin/node /home/travis/build/npmdoc/node-npmdo\</tspan>
<tspan x="10" y="186">c-less/test.js</tspan>
<tspan x="10" y="202">merging file:///home/travis/build/npmdoc/node-npmdoc-less/tmp/build/test-report.json to test-rep\</tspan>
<tspan x="10" y="218">ort</tspan>
<tspan x="10" y="234">&gt; server listening on http-port 48860</tspan>
<tspan x="10" y="250">created apidoc file:///home/travis/build/npmdoc/node-npmdoc-less/tmp/build/apidoc.html</tspan>
<tspan x="10" y="266"></tspan>
<tspan x="10" y="282"></tspan>
<tspan x="10" y="298">browserTest - created electron entry-page /home/travis/build/npmdoc/node-npmdoc-less/tmp/electro\</tspan>
<tspan x="10" y="314">n.15b06baf4610.71160431a3126.html</tspan>
<tspan x="10" y="330"></tspan>
<tspan x="10" y="346">Xlib:  extension "RANDR" missing on display ":99.0".</tspan>
<tspan x="10" y="362">[node test-case 1 of 6 passed] - testCase_buildLib_default</tspan>
<tspan x="10" y="378">[node test-case 2 of 6 passed] - testCase_buildReadme_default</tspan>
<tspan x="10" y="394">[node test-case 3 of 6 passed] - testCase_buildTest_default</tspan>
<tspan x="10" y="410"></tspan>
<tspan x="10" y="426">browserTest - created electron entry-page /home/travis/build/npmdoc/node-npmdoc-less/tmp/electro\</tspan>
<tspan x="10" y="442">n.15b06baf5840.e7136722f85e2.html</tspan>
<tspan x="10" y="458"></tspan>
<tspan x="10" y="474">Xlib:  extension "RANDR" missing on display ":99.0".</tspan>
<tspan x="10" y="490">&gt; server listening on http-port 50914</tspan>
<tspan x="10" y="506">merging file:///home/travis/build/npmdoc/node-npmdoc-less/tmp/build/test-report.json to test-rep\</tspan>
<tspan x="10" y="522">ort</tspan>
<tspan x="10" y="538">Xlib:  extension "RANDR" missing on display ":99.0".</tspan>
<tspan x="10" y="554">[4678:0325/182928:WARNING:audio_manager.cc(314)] Multiple instances of AudioManager detected</tspan>
<tspan x="10" y="570">[4678:0325/182928:WARNING:audio_manager.cc(275)] Multiple instances of AudioManager detected</tspan>
<tspan x="10" y="586">[4723:0325/182928:ERROR:sandbox_linux.cc(343)] InitializeSandbox() called with multiple threads \</tspan>
<tspan x="10" y="602">in process gpu-process. </tspan>
<tspan x="10" y="618">merging file:///home/travis/build/npmdoc/node-npmdoc-less/tmp/build/test-report.json to test-rep\</tspan>
<tspan x="10" y="634">ort</tspan>
<tspan x="10" y="650">Xlib:  extension "RANDR" missing on display ":99.0".</tspan>
<tspan x="10" y="666">[4701:0325/182928:WARNING:audio_manager.cc(314)] Multiple instances of AudioManager detected</tspan>
<tspan x="10" y="682">[4701:0325/182928:WARNING:audio_manager.cc(275)] Multiple instances of AudioManager detected</tspan>
<tspan x="10" y="698">[4754:0325/182928:ERROR:sandbox_linux.cc(343)] InitializeSandbox() called with multiple threads \</tspan>
<tspan x="10" y="714">in process gpu-process. </tspan>
<tspan x="10" y="730"></tspan>
<tspan x="10" y="746">browserTest - opened url file:///home/travis/build/npmdoc/node-npmdoc-less/tmp/build/apidoc.html</tspan>
<tspan x="10" y="762"></tspan>
<tspan x="10" y="778"></tspan>
<tspan x="10" y="794">browserTest - opened url http://127.0.0.1:48860?modeTest=1</tspan>
<tspan x="10" y="810"></tspan>
<tspan x="10" y="826">[4701:0325/182930:INFO:CONSOLE(203)] "----------|-----------|-----------|-----------|-----------\</tspan>
<tspan x="10" y="842">|</tspan>
<tspan x="10" y="858">File      |   % Stmts |% Branches |   % Funcs |   % Lines |</tspan>
<tspan x="10" y="874">----------|-----------|-----------|-----------|-----------|</tspan>
<tspan x="10" y="890">----------|-----------|-----------|-----------|-----------|</tspan>
<tspan x="10" y="906">All files |       100 |       100 |       100 |       100 |</tspan>
<tspan x="10" y="922">----------|-----------|-----------|-----------|-----------|</tspan>
<tspan x="10" y="938">", source: file:///home/travis/build/npmdoc/node-npmdoc-less/tmp/electron.15b06baf5840.e7136722f\</tspan>
<tspan x="10" y="954">85e2.html (203)</tspan>
<tspan x="10" y="970">[4701:0325/182930:INFO:CONSOLE(203)] "created coverage file:///tmp/build/coverage.html/index.htm\</tspan>
<tspan x="10" y="986">l", source: file:///home/travis/build/npmdoc/node-npmdoc-less/tmp/electron.15b06baf5840.e7136722\</tspan>
<tspan x="10" y="1002">f85e2.html (203)</tspan>
<tspan x="10" y="1018">[node test-case 4 of 6 passed] - testCase_buildApp_default</tspan>
<tspan x="10" y="1034"></tspan>
<tspan x="10" y="1050">browserTest - created screen-capture file:///home/travis/build/npmdoc/node-npmdoc-less/tmp/build\</tspan>
<tspan x="10" y="1066">/screen-capture.npmTest.browser._2Fhome_2Ftravis_2Fbuild_2Fnpmdoc_2Fnode-npmdoc-less_2Ftmp_2Fbui\</tspan>
<tspan x="10" y="1082">ld_2Fapidoc.html.png</tspan>
<tspan x="10" y="1098"></tspan>
<tspan x="10" y="1114"></tspan>
<tspan x="10" y="1130">browserTest - exit-code 0 - file:///home/travis/build/npmdoc/node-npmdoc-less/tmp/build/apidoc.h\</tspan>
<tspan x="10" y="1146">tml</tspan>
<tspan x="10" y="1162"></tspan>
<tspan x="10" y="1178">[node test-case 5 of 6 passed] - testCase_buildApidoc_default</tspan>
<tspan x="10" y="1194"></tspan>
<tspan x="10" y="1210">browserTest - created screen-capture file:///home/travis/build/npmdoc/node-npmdoc-less/tmp/build\</tspan>
<tspan x="10" y="1226">/screen-capture.npmTest.browser..png</tspan>
<tspan x="10" y="1242"></tspan>
<tspan x="10" y="1258"></tspan>
<tspan x="10" y="1274">browserTest - exit-code 0 - http://127.0.0.1:48860?modeTest=1</tspan>
<tspan x="10" y="1290"></tspan>
<tspan x="10" y="1306"></tspan>
<tspan x="10" y="1322">browserTest - merged coverage from /home/travis/build/npmdoc/node-npmdoc-less/tmp/coverage.npmTe\</tspan>
<tspan x="10" y="1338">st.browser.%2F.json</tspan>
<tspan x="10" y="1354"></tspan>
<tspan x="10" y="1370"></tspan>
<tspan x="10" y="1386">browserTest - merging test-report from /home/travis/build/npmdoc/node-npmdoc-less/tmp/test-repor\</tspan>
<tspan x="10" y="1402">t.npmTest.browser.%2F.json</tspan>
<tspan x="10" y="1418"></tspan>
<tspan x="10" y="1434">[node test-case 6 of 6 passed] - testCase_webpage_default</tspan>
<tspan x="10" y="1450">-------------------------|-----------|-----------|-----------|-----------|</tspan>
<tspan x="10" y="1466">File                     |   % Stmts |% Branches |   % Funcs |   % Lines |</tspan>
<tspan x="10" y="1482">-------------------------|-----------|-----------|-----------|-----------|</tspan>
<tspan x="10" y="1498">   node-npmdoc-less/     |       100 |       100 |       100 |       100 |</tspan>
<tspan x="10" y="1514">      example.js         |       100 |       100 |       100 |       100 |</tspan>
<tspan x="10" y="1530">      lib.npmdoc_less.js |       100 |       100 |       100 |       100 |</tspan>
<tspan x="10" y="1546">      test.js            |       100 |       100 |       100 |       100 |</tspan>
<tspan x="10" y="1562">-------------------------|-----------|-----------|-----------|-----------|</tspan>
<tspan x="10" y="1578">All files                |       100 |       100 |       100 |       100 |</tspan>
<tspan x="10" y="1594">-------------------------|-----------|-----------|-----------|-----------|</tspan>
<tspan x="10" y="1610"></tspan>
<tspan x="10" y="1626">created coverage file:///home/travis/build/npmdoc/node-npmdoc-less/tmp/build/coverage.html/index\</tspan>
<tspan x="10" y="1642">.html</tspan>
<tspan x="10" y="1658">merging file:///home/travis/build/npmdoc/node-npmdoc-less/tmp/build/test-report.json to test-rep\</tspan>
<tspan x="10" y="1674">ort</tspan>
<tspan x="10" y="1690"></tspan>
<tspan x="10" y="1706">-------------------------------------------------------</tspan>
<tspan x="10" y="1722">| test-report - buildNpmdoc - node - linux v6.10.1 - 2017-03-25T18:29:15.663Z</tspan>
<tspan x="10" y="1738">|   17002 ms            0 failed        6 passed      |</tspan>
<tspan x="10" y="1754">-------------------------------------------------------</tspan>
<tspan x="10" y="1770"></tspan>
<tspan x="10" y="1786">created test-report file:///home/travis/build/npmdoc/node-npmdoc-less/tmp/build/test-report.html</tspan>
<tspan x="10" y="1802"></tspan>
<tspan x="10" y="1818"></tspan>
<tspan x="10" y="1834">npmTest - 0 failed tests</tspan>
<tspan x="10" y="1850"></tspan>
<tspan x="10" y="1866"></tspan>
<tspan x="10" y="1882">[MODE_BUILD=npmTest] - 2017-03-25T18:29:35Z - EXIT_CODE - 0</tspan>
</text>
</svg>
